<svg width="349" height="336" viewBox="0 0 349 336" fill="none" xmlns="http://www.w3.org/2000/svg">
<g filter="url(#filter0_d)">
<rect x="4" y="3" width="341" height="327.36" rx="163.68" fill="#FFFDFD"/>
<rect x="7.5" y="6.5" width="334" height="320.36" rx="160.18" stroke="#E5E5E5" stroke-width="7"/>
</g>
<path d="M98.875 210.5C98.8844 215.066 99.8579 219.578 101.732 223.742C103.606 227.905 106.338 231.626 109.75 234.66V248.563C109.75 250.005 110.323 251.388 111.343 252.407C112.362 253.427 113.745 254 115.188 254H126.062C127.505 254 128.888 253.427 129.907 252.407C130.927 251.388 131.5 250.005 131.5 248.563V243.125H218.5V248.563C218.5 250.005 219.073 251.388 220.093 252.407C221.112 253.427 222.495 254 223.938 254H234.812C236.255 254 237.638 253.427 238.657 252.407C239.677 251.388 240.25 250.005 240.25 248.563V234.66C243.662 231.626 246.394 227.905 248.268 223.742C250.142 219.578 251.116 215.066 251.125 210.5V194.188H98.875V210.5ZM256.562 167.001H115.188V103.536C115.191 102.109 115.616 100.715 116.411 99.5291C117.205 98.3436 118.333 97.42 119.652 96.8747C120.971 96.3294 122.422 96.187 123.821 96.4652C125.221 96.7435 126.507 97.43 127.517 98.4383L134.066 104.984C129.604 115.138 131.48 125.072 136.995 132.079L136.938 132.137C135.922 133.156 135.351 134.536 135.351 135.975C135.351 137.414 135.922 138.795 136.938 139.814L140.781 143.657C141.286 144.162 141.886 144.563 142.545 144.836C143.205 145.11 143.912 145.25 144.626 145.25C145.341 145.25 146.048 145.11 146.708 144.836C147.367 144.563 147.967 144.162 148.472 143.657L184.281 107.848C184.786 107.344 185.187 106.744 185.46 106.084C185.733 105.424 185.874 104.717 185.874 104.003C185.874 103.289 185.733 102.582 185.46 101.922C185.187 101.262 184.786 100.663 184.281 100.158L180.438 96.3143C179.418 95.2953 178.035 94.7229 176.594 94.7229C175.152 94.7229 173.77 95.2953 172.75 96.3143L172.692 96.372C165.685 90.8564 155.758 88.9805 145.597 93.4426L139.051 86.8939C135.76 83.6022 131.566 81.3605 127.001 80.4523C122.436 79.5441 117.703 80.0101 113.403 81.7915C109.102 83.5729 105.427 86.5896 102.841 90.4601C100.255 94.3306 98.8746 98.881 98.875 103.536V167.001H93.4375C91.9954 167.001 90.6123 167.574 89.5926 168.594C88.5729 169.613 88 170.996 88 172.438V177.876C88 179.318 88.5729 180.701 89.5926 181.721C90.6123 182.74 91.9954 183.313 93.4375 183.313H256.562C258.005 183.313 259.388 182.74 260.407 181.721C261.427 180.701 262 179.318 262 177.876V172.438C262 170.996 261.427 169.613 260.407 168.594C259.388 167.574 258.005 167.001 256.562 167.001Z" fill="#4760FF"/>
<defs>
<filter id="filter0_d" x="0" y="0" width="349" height="335.36" filterUnits="userSpaceOnUse" color-interpolation-filters="sRGB">
<feFlood flood-opacity="0" result="BackgroundImageFix"/>
<feColorMatrix in="SourceAlpha" type="matrix" values="0 0 0 0 0 0 0 0 0 0 0 0 0 0 0 0 0 0 127 0"/>
<feOffset dy="1"/>
<feGaussianBlur stdDeviation="2"/>
<feColorMatrix type="matrix" values="0 0 0 0 0 0 0 0 0 0 0 0 0 0 0 0 0 0 0.1 0"/>
<feBlend mode="normal" in2="BackgroundImageFix" result="effect1_dropShadow"/>
<feBlend mode="normal" in="SourceGraphic" in2="effect1_dropShadow" result="shape"/>
</filter>
</defs>
</svg>
