<svg width="349" height="336" viewBox="0 0 349 336" fill="none" xmlns="http://www.w3.org/2000/svg">
<g filter="url(#filter0_d)">
<rect x="4" y="3" width="341" height="327.36" rx="163.68" fill="#FFFDFD"/>
<rect x="7.5" y="6.5" width="334" height="320.36" rx="160.18" stroke="#E5E5E5" stroke-width="7"/>
</g>
<path d="M257 197.153L237.557 216.596L208.481 187.519L195.519 200.481L224.596 229.557L205.153 249H257V197.153ZM92 135.847L111.442 116.404L140.519 145.481L153.481 132.519L124.404 103.442L143.847 84H92V135.847ZM257 84H205.153L224.596 103.442L195.519 132.519L208.481 145.481L237.557 116.404L257 135.847V84ZM92 249H143.847L124.404 229.557L153.481 200.481L140.519 187.519L111.442 216.596L92 197.153V249Z" fill="#4760FF"/>
<defs>
<filter id="filter0_d" x="0" y="0" width="349" height="335.36" filterUnits="userSpaceOnUse" color-interpolation-filters="sRGB">
<feFlood flood-opacity="0" result="BackgroundImageFix"/>
<feColorMatrix in="SourceAlpha" type="matrix" values="0 0 0 0 0 0 0 0 0 0 0 0 0 0 0 0 0 0 127 0"/>
<feOffset dy="1"/>
<feGaussianBlur stdDeviation="2"/>
<feColorMatrix type="matrix" values="0 0 0 0 0 0 0 0 0 0 0 0 0 0 0 0 0 0 0.1 0"/>
<feBlend mode="normal" in2="BackgroundImageFix" result="effect1_dropShadow"/>
<feBlend mode="normal" in="SourceGraphic" in2="effect1_dropShadow" result="shape"/>
</filter>
</defs>
</svg>
